# xmcd
#
# Track frame offsets:
#	150
#	15853
#	31582
#	47487
#	65169
#	82242
#	96647
#	113156
#	133309
#	149059
#	163961
#	177433
#
# Disc length: 2558 seconds
#
# Revision: 1
# Processed by: cddbd v1.4PL0 Copyright (c) Steve Scherf et al.
# Submitted via: audiograbber 1.82.02
#
DISCID=b009fc0c
DTITLE=Frank Michael - Ses grandes chansons
DYEAR=1900
DGENRE=
TTITLE0=San Angelo
TTITLE1=Reviens
TTITLE2=Mama
TTITLE3=Tu te retrouve seul
TTITLE4=Le blues de toi
TTITLE5=Je vais t'aimer
TTITLE6=Qui plus que nous
TTITLE7=Entends ma voix
TTITLE8=L'émigrant
TTITLE9=Je peux pas t'oublier
TTITLE10=Stop au present
TTITLE11=P'tite fille de province
EXTD=
EXTT0=
EXTT1=
EXTT2=
EXTT3=
EXTT4=
EXTT5=
EXTT6=
EXTT7=
EXTT8=
EXTT9=
EXTT10=
EXTT11=
PLAYORDER=
